Normalized EMG Linear Envelopes
nRows=65
nColumns=17

endheader
time	        VM	        VL	        RF	       GRA	        TA	   ADDLONG	   SEMIMEM	      BFLH	        GM	        GL	       TFL	   GLUTMAX	   GLUTMED	      PIRI	    OBTINT	        QF	
2.51	  0.033881	  0.000000	  0.002100	  0.269703	  0.141927	  0.034768	  0.609086	  0.425136	  0.177620	  0.125539	  0.024319	  0.353764	  0.252975	  0.273884	  0.549436	  0.544319	
2.5105	  0.034583	  0.000000	  0.002130	  0.271998	  0.144145	  0.034639	  0.611753	  0.426904	  0.179129	  0.125847	  0.024468	  0.355171	  0.251776	  0.272306	  0.541657	  0.544616	
2.511	  0.035295	  0.000000	  0.002160	  0.274287	  0.146410	  0.034518	  0.614395	  0.428671	  0.180639	  0.126147	  0.024618	  0.356547	  0.250587	  0.270733	  0.533983	  0.544913	
2.5115	  0.036016	  0.000000	  0.002190	  0.276568	  0.148723	  0.034407	  0.617010	  0.430436	  0.182149	  0.126439	  0.024768	  0.357893	  0.249409	  0.269164	  0.526413	  0.545212	
2.512	  0.036748	  0.000000	  0.002220	  0.278840	  0.151082	  0.034304	  0.619596	  0.432198	  0.183659	  0.126724	  0.024918	  0.359207	  0.248240	  0.267601	  0.518946	  0.545510	
2.5125	  0.037490	  0.000000	  0.002250	  0.281099	  0.153487	  0.034211	  0.622151	  0.433958	  0.185169	  0.127001	  0.025069	  0.360492	  0.247082	  0.266045	  0.511582	  0.545809	
2.513	  0.038241	  0.000000	  0.002280	  0.283346	  0.155938	  0.034127	  0.624673	  0.435715	  0.186679	  0.127271	  0.025220	  0.361746	  0.245934	  0.264495	  0.504319	  0.546108	
2.5135	  0.039003	  0.000000	  0.002310	  0.285578	  0.158434	  0.034051	  0.627162	  0.437468	  0.188188	  0.127535	  0.025371	  0.362970	  0.244796	  0.262953	  0.497156	  0.546405	
2.514	  0.039773	  0.000000	  0.002340	  0.287794	  0.160974	  0.033985	  0.629614	  0.439218	  0.189696	  0.127794	  0.025522	  0.364165	  0.243668	  0.261419	  0.490092	  0.546702	
2.5145	  0.040554	  0.000000	  0.002370	  0.289993	  0.163558	  0.033926	  0.632027	  0.440964	  0.191204	  0.128047	  0.025674	  0.365330	  0.242551	  0.259894	  0.483125	  0.546998	
2.515	  0.041344	  0.000000	  0.002399	  0.292172	  0.166185	  0.033877	  0.634400	  0.442705	  0.192710	  0.128296	  0.025825	  0.366465	  0.241445	  0.258379	  0.476255	  0.547291	
2.5155	  0.042143	  0.000000	  0.002429	  0.294332	  0.168855	  0.033836	  0.636731	  0.444442	  0.194214	  0.128540	  0.025977	  0.367571	  0.240348	  0.256874	  0.469481	  0.547581	
2.516	  0.042952	  0.000000	  0.002459	  0.296471	  0.171566	  0.033803	  0.639017	  0.446174	  0.195717	  0.128781	  0.026128	  0.368647	  0.239263	  0.255380	  0.462802	  0.547867	
2.5165	  0.043770	  0.000000	  0.002488	  0.298588	  0.174318	  0.033779	  0.641258	  0.447902	  0.197217	  0.129019	  0.026279	  0.369693	  0.238187	  0.253897	  0.456217	  0.548149	
2.517	  0.044597	  0.000000	  0.002518	  0.300682	  0.177110	  0.033763	  0.643450	  0.449625	  0.198715	  0.129254	  0.026429	  0.370709	  0.237122	  0.252427	  0.449725	  0.548427	
2.5175	  0.045434	  0.000000	  0.002547	  0.302753	  0.179940	  0.033756	  0.645593	  0.451344	  0.200210	  0.129486	  0.026580	  0.371693	  0.236068	  0.250969	  0.443327	  0.548699	
2.518	  0.046279	  0.000000	  0.002576	  0.304800	  0.182809	  0.033756	  0.647685	  0.453057	  0.201702	  0.129717	  0.026730	  0.372647	  0.235024	  0.249525	  0.437020	  0.548966	
2.5185	  0.047133	  0.000000	  0.002605	  0.306823	  0.185716	  0.033765	  0.649724	  0.454766	  0.203190	  0.129946	  0.026879	  0.373569	  0.233989	  0.248094	  0.430806	  0.549226	
2.519	  0.047996	  0.000000	  0.002634	  0.308821	  0.188658	  0.033782	  0.651708	  0.456469	  0.204675	  0.130174	  0.027027	  0.374458	  0.232965	  0.246678	  0.424684	  0.549480	
2.5195	  0.048868	  0.000000	  0.002664	  0.310794	  0.191635	  0.033807	  0.653638	  0.458166	  0.206156	  0.130401	  0.027175	  0.375314	  0.231950	  0.245276	  0.418652	  0.549726	
2.52	  0.049749	  0.000000	  0.002693	  0.312741	  0.194646	  0.033840	  0.655512	  0.459858	  0.207634	  0.130627	  0.027321	  0.376136	  0.230944	  0.243889	  0.412711	  0.549965	
2.5205	  0.050638	  0.000000	  0.002722	  0.314661	  0.197690	  0.033882	  0.657331	  0.461543	  0.209107	  0.130854	  0.027467	  0.376924	  0.229948	  0.242519	  0.406860	  0.550196	
2.521	  0.051535	  0.000000	  0.002751	  0.316555	  0.200766	  0.033932	  0.659097	  0.463222	  0.210576	  0.131080	  0.027611	  0.377677	  0.228960	  0.241164	  0.401099	  0.550419	
2.5215	  0.052441	  0.000000	  0.002780	  0.318421	  0.203872	  0.033990	  0.660808	  0.464895	  0.212040	  0.131308	  0.027754	  0.378393	  0.227980	  0.239825	  0.395428	  0.550633	
2.522	  0.053356	  0.000000	  0.002809	  0.320259	  0.207007	  0.034056	  0.662467	  0.466563	  0.213500	  0.131536	  0.027895	  0.379071	  0.227007	  0.238503	  0.389845	  0.550839	
2.5225	  0.054278	  0.000000	  0.002839	  0.322070	  0.210170	  0.034130	  0.664075	  0.468225	  0.214956	  0.131765	  0.028035	  0.379711	  0.226042	  0.237198	  0.384351	  0.551035	
2.523	  0.055210	  0.000000	  0.002868	  0.323854	  0.213359	  0.034212	  0.665633	  0.469881	  0.216408	  0.131996	  0.028173	  0.380311	  0.225084	  0.235910	  0.378946	  0.551221	
2.5235	  0.056150	  0.000000	  0.002898	  0.325609	  0.216573	  0.034302	  0.667142	  0.471531	  0.217855	  0.132228	  0.028309	  0.380870	  0.224131	  0.234638	  0.373629	  0.551397	
2.524	  0.057098	  0.000000	  0.002928	  0.327337	  0.219810	  0.034400	  0.668604	  0.473177	  0.219299	  0.132462	  0.028444	  0.381388	  0.223185	  0.233384	  0.368399	  0.551562	
2.5245	  0.058055	  0.000000	  0.002958	  0.329038	  0.223070	  0.034506	  0.670020	  0.474817	  0.220738	  0.132698	  0.028576	  0.381863	  0.222243	  0.232148	  0.363258	  0.551716	
2.525	  0.059021	  0.000000	  0.002989	  0.330712	  0.226349	  0.034620	  0.671390	  0.476452	  0.222174	  0.132935	  0.028706	  0.382295	  0.221307	  0.230929	  0.358206	  0.551858	
2.5255	  0.059995	  0.000000	  0.003020	  0.332359	  0.229647	  0.034742	  0.672715	  0.478083	  0.223607	  0.133175	  0.028833	  0.382682	  0.220374	  0.229727	  0.353241	  0.551989	
2.526	  0.060979	  0.000000	  0.003051	  0.333980	  0.232962	  0.034871	  0.673998	  0.479708	  0.225036	  0.133417	  0.028959	  0.383024	  0.219444	  0.228542	  0.348366	  0.552107	
2.5265	  0.061971	  0.000000	  0.003082	  0.335575	  0.236292	  0.035008	  0.675238	  0.481330	  0.226463	  0.133661	  0.029081	  0.383320	  0.218517	  0.227375	  0.343578	  0.552214	
2.527	  0.062972	  0.000000	  0.003114	  0.337144	  0.239636	  0.035153	  0.676437	  0.482947	  0.227886	  0.133907	  0.029201	  0.383570	  0.217592	  0.226225	  0.338880	  0.552310	
2.5275	  0.063983	  0.000000	  0.003147	  0.338688	  0.242991	  0.035305	  0.677596	  0.484562	  0.229307	  0.134156	  0.029317	  0.383773	  0.216668	  0.225092	  0.334271	  0.552395	
2.528	  0.065003	  0.000000	  0.003180	  0.340206	  0.246356	  0.035465	  0.678714	  0.486173	  0.230725	  0.134407	  0.029431	  0.383929	  0.215745	  0.223976	  0.329750	  0.552470	
2.5285	  0.066032	  0.000000	  0.003213	  0.341700	  0.249729	  0.035632	  0.679793	  0.487782	  0.232141	  0.134660	  0.029541	  0.384038	  0.214821	  0.222877	  0.325319	  0.552535	
2.529	  0.067071	  0.000000	  0.003248	  0.343168	  0.253109	  0.035806	  0.680834	  0.489389	  0.233554	  0.134916	  0.029649	  0.384098	  0.213896	  0.221794	  0.320978	  0.552591	
2.5295	  0.068120	  0.000000	  0.003282	  0.344610	  0.256492	  0.035988	  0.681836	  0.490995	  0.234966	  0.135174	  0.029752	  0.384111	  0.212968	  0.220727	  0.316725	  0.552639	
2.53	  0.069179	  0.000000	  0.003318	  0.346027	  0.259878	  0.036176	  0.682800	  0.492599	  0.236378	  0.135435	  0.029853	  0.384076	  0.212037	  0.219677	  0.312563	  0.552678	
2.5305	  0.070248	  0.000000	  0.003354	  0.347419	  0.263264	  0.036372	  0.683727	  0.494203	  0.237789	  0.135698	  0.029950	  0.383992	  0.211101	  0.218642	  0.308491	  0.552709	
2.531	  0.071328	  0.000000	  0.003391	  0.348785	  0.266648	  0.036574	  0.684617	  0.495806	  0.239200	  0.135964	  0.030043	  0.383859	  0.210160	  0.217622	  0.304509	  0.552733	
2.5315	  0.072418	  0.000000	  0.003429	  0.350124	  0.270028	  0.036784	  0.685471	  0.497410	  0.240612	  0.136232	  0.030132	  0.383678	  0.209213	  0.216618	  0.300618	  0.552749	
2.532	  0.073519	  0.000000	  0.003467	  0.351437	  0.273403	  0.037000	  0.686289	  0.499016	  0.242024	  0.136503	  0.030218	  0.383447	  0.208259	  0.215630	  0.296819	  0.552758	
2.5325	  0.074631	  0.000000	  0.003507	  0.352723	  0.276770	  0.037222	  0.687072	  0.500623	  0.243438	  0.136776	  0.030299	  0.383167	  0.207297	  0.214658	  0.293111	  0.552760	
2.533	  0.075754	  0.000000	  0.003548	  0.353982	  0.280127	  0.037451	  0.687820	  0.502233	  0.244854	  0.137051	  0.030376	  0.382837	  0.206327	  0.213701	  0.289495	  0.552755	
2.5335	  0.076888	  0.000000	  0.003589	  0.355214	  0.283473	  0.037687	  0.688533	  0.503847	  0.246272	  0.137329	  0.030450	  0.382457	  0.205347	  0.212760	  0.285971	  0.552745	
2.534	  0.078034	  0.000000	  0.003632	  0.356419	  0.286806	  0.037928	  0.689210	  0.505466	  0.247692	  0.137609	  0.030518	  0.382026	  0.204357	  0.211836	  0.282540	  0.552729	
2.5345	  0.079191	  0.000000	  0.003676	  0.357597	  0.290123	  0.038176	  0.689852	  0.507089	  0.249115	  0.137892	  0.030583	  0.381544	  0.203356	  0.210929	  0.279201	  0.552710	
2.535	  0.080360	  0.000000	  0.003721	  0.358748	  0.293423	  0.038430	  0.690457	  0.508717	  0.250541	  0.138177	  0.030643	  0.381012	  0.202344	  0.210038	  0.275955	  0.552688	
2.5355	  0.081541	  0.000000	  0.003768	  0.359873	  0.296703	  0.038690	  0.691024	  0.510351	  0.251970	  0.138465	  0.030698	  0.380429	  0.201320	  0.209164	  0.272803	  0.552666	
2.536	  0.082734	  0.000000	  0.003816	  0.360972	  0.299963	  0.038956	  0.691554	  0.511990	  0.253403	  0.138756	  0.030749	  0.379795	  0.200281	  0.208307	  0.269743	  0.552644	
2.5365	  0.083939	  0.000009	  0.003865	  0.362046	  0.303199	  0.039227	  0.692046	  0.513636	  0.254839	  0.139049	  0.030795	  0.379112	  0.199229	  0.207467	  0.266777	  0.552626	
2.537	  0.085155	  0.000384	  0.003916	  0.363094	  0.306411	  0.039505	  0.692499	  0.515287	  0.256279	  0.139345	  0.030837	  0.378380	  0.198161	  0.206643	  0.263904	  0.552613	
2.5375	  0.086385	  0.000777	  0.003968	  0.364117	  0.309595	  0.039788	  0.692913	  0.516945	  0.257723	  0.139644	  0.030873	  0.377600	  0.197077	  0.205837	  0.261124	  0.552608	
2.538	  0.087627	  0.001191	  0.004023	  0.365116	  0.312750	  0.040077	  0.693289	  0.518609	  0.259171	  0.139944	  0.030905	  0.376773	  0.195976	  0.205048	  0.258437	  0.552612	
2.5385	  0.088882	  0.001625	  0.004078	  0.366090	  0.315875	  0.040371	  0.693627	  0.520280	  0.260623	  0.140248	  0.030932	  0.375900	  0.194856	  0.204275	  0.255843	  0.552628	
2.539	  0.090150	  0.002079	  0.004136	  0.367039	  0.318967	  0.040672	  0.693927	  0.521957	  0.262080	  0.140553	  0.030955	  0.374982	  0.193717	  0.203519	  0.253342	  0.552659	
2.5395	  0.091432	  0.002554	  0.004195	  0.367965	  0.322026	  0.040978	  0.694190	  0.523640	  0.263542	  0.140861	  0.030972	  0.374020	  0.192558	  0.202780	  0.250933	  0.552704	
2.54	  0.092728	  0.003051	  0.004256	  0.368866	  0.325050	  0.041290	  0.694416	  0.525330	  0.265008	  0.141170	  0.030985	  0.373016	  0.191378	  0.202058	  0.248616	  0.552767	
2.5405	  0.094038	  0.003571	  0.004320	  0.369743	  0.328036	  0.041608	  0.694607	  0.527027	  0.266480	  0.141482	  0.030992	  0.371970	  0.190176	  0.201352	  0.246391	  0.552849	
2.541	  0.095364	  0.004113	  0.004385	  0.370597	  0.330986	  0.041932	  0.694763	  0.528730	  0.267956	  0.141796	  0.030995	  0.370884	  0.188953	  0.200662	  0.244256	  0.552952	
2.5415	  0.096704	  0.004679	  0.004452	  0.371428	  0.333896	  0.042262	  0.694885	  0.530439	  0.269438	  0.142112	  0.030993	  0.369757	  0.187708	  0.199990	  0.242212	  0.553076	
2.542	  0.098060	  0.005268	  0.004522	  0.372236	  0.336766	  0.042597	  0.694975	  0.532156	  0.270926	  0.142429	  0.030985	  0.368592	  0.186440	  0.199334	  0.240257	  0.553224	
